<svg version="1.1" id="Layer_1" xmlns="http://www.w3.org/2000/svg" xmlns:xlink="http://www.w3.org/1999/xlink" x="0px" y="0px"
	 width="100%" viewBox="0 0 500 500" enable-background="new 0 0 500 500" xml:space="preserve">
<path fill="#FFFFFF" opacity="1.000000" stroke="none" 
	d="
M272.000000,501.000000 
	C181.333359,501.000000 91.166710,501.000000 1.000048,501.000000 
	C1.000032,334.333405 1.000032,167.666794 1.000016,1.000138 
	C167.666565,1.000092 334.333130,1.000092 500.999756,1.000046 
	C500.999847,167.666519 500.999847,334.333038 500.999939,500.999786 
	C424.833344,501.000000 348.666656,501.000000 272.000000,501.000000 
M153.643234,231.500198 
	C153.643234,219.769714 153.643234,208.039230 153.643234,196.152664 
	C158.641174,196.152664 162.792465,196.033661 166.935104,196.172745 
	C187.679703,196.869202 205.142273,203.700912 215.302597,223.170044 
	C219.055313,230.360947 222.163559,237.911133 225.184769,245.450134 
	C226.487473,248.700867 228.050903,250.085693 231.851486,248.607330 
	C230.930298,229.239212 230.002457,209.731125 229.081161,190.360504 
	C179.476761,190.360504 130.588409,190.360504 81.682175,190.360504 
	C81.682175,192.413971 81.682175,194.140579 81.682175,196.326721 
	C87.224030,196.326721 92.482483,196.326721 97.869141,196.326721 
	C97.869141,258.658875 97.869141,320.524445 97.869141,382.860718 
	C92.268250,382.860718 87.007469,382.860718 81.631561,382.860718 
	C81.631561,385.070770 81.631561,386.803650 81.631561,388.608002 
	C117.402458,388.608002 152.926025,388.608002 188.366653,388.608002 
	C188.366653,386.521576 188.366653,384.799438 188.366653,382.771271 
	C176.753601,382.771271 165.474533,382.771271 153.962189,382.771271 
	C153.962189,353.755219 153.962189,325.060242 153.962189,295.908112 
	C159.237061,295.908112 164.229355,295.558624 169.155396,295.981323 
	C179.227356,296.845581 187.540710,301.205536 191.981430,310.598480 
	C195.224243,317.457672 197.599365,324.756500 199.959030,331.990540 
	C201.031754,335.279205 202.346054,336.484314 205.757797,334.750092 
	C205.757797,316.264404 205.757751,297.796021 205.757812,279.327637 
	C205.757843,271.163696 205.826050,262.998566 205.681213,254.837219 
	C205.660690,253.681320 204.603592,252.543823 204.026276,251.397812 
	C202.978027,252.380676 201.848999,253.294449 200.920517,254.379776 
	C200.538788,254.826004 200.624496,255.652191 200.437637,256.287933 
	C192.162796,284.439209 177.240051,291.110992 153.643219,287.830994 
	C153.643219,269.420013 153.643219,250.960114 153.643234,231.500198 
M275.059418,262.542297 
	C285.535889,250.506104 291.994110,236.276474 296.873535,221.337296 
	C300.598389,209.933151 303.519653,198.266541 306.801270,186.703110 
	C307.020203,186.937836 307.396637,187.149673 307.434570,187.410690 
	C308.055389,191.682480 308.590820,195.966858 309.228363,200.236008 
	C312.362976,221.225769 318.432281,241.106491 331.160919,258.496796 
	C348.165344,281.728912 371.804443,286.793457 397.107361,278.073547 
	C400.734833,276.823395 404.252533,275.215485 404.218109,270.262207 
	C404.164124,262.489441 400.116882,259.405426 391.789856,260.230713 
	C384.588715,260.944366 377.141235,262.050201 370.116516,260.960114 
	C360.709534,259.500397 354.667236,252.224106 349.577393,244.621231 
	C337.749084,226.952805 332.521240,206.917862 328.782806,186.320129 
	C328.144653,182.804047 329.363617,181.528885 332.095490,179.805649 
	C343.763000,172.445770 355.747894,165.430710 366.616974,157.000549 
	C382.954803,144.328857 398.172699,130.230682 409.767426,112.890701 
	C412.797455,108.359253 414.796509,102.698463 415.698395,97.294220 
	C416.851196,90.386604 411.224213,86.459312 404.933441,89.755577 
	C400.844788,91.897972 397.119629,95.462830 394.310333,99.201088 
	C374.449615,125.629379 350.250885,147.225540 322.346527,164.771454 
	C318.359375,167.278519 314.105621,169.361526 309.452911,171.929016 
	C309.330780,170.199158 309.199249,169.553421 309.253357,168.923660 
	C310.463745,154.831390 311.954895,140.757111 312.834686,126.644623 
	C313.476501,116.349396 313.649628,105.996056 313.395630,95.684288 
	C313.234009,89.123276 308.270020,85.295120 302.442535,86.366562 
	C286.529358,89.292381 270.917725,93.116623 256.446381,100.778748 
	C239.622604,109.686432 228.374557,123.018234 223.831787,141.540009 
	C221.080322,152.758301 222.713257,163.779419 227.912064,174.057175 
	C231.083862,180.327637 236.673584,181.472519 243.752121,178.009735 
	C248.478271,175.697708 249.456863,172.201080 246.921402,165.740753 
	C243.924805,158.105499 242.961487,150.266068 244.535614,142.228592 
	C248.316437,122.923859 265.714294,110.926712 287.853790,107.204895 
	C287.960602,108.022072 288.100159,108.830231 288.167725,109.644363 
	C290.006195,131.798233 289.342499,153.933014 286.818024,175.967880 
	C284.690186,194.540756 280.784821,212.731873 272.095703,229.581085 
	C263.841919,245.586166 249.136093,260.522095 226.138641,255.932480 
	C219.165588,254.540863 213.371643,258.529816 212.081223,265.150665 
	C210.623337,272.630707 213.061172,276.634369 221.250900,278.289948 
	C241.562439,282.395966 260.045380,279.490601 275.059418,262.542297 
M106.409248,106.951508 
	C104.973938,108.086937 103.325424,109.039688 102.156776,110.403603 
	C100.663467,112.146423 99.557320,114.220970 98.284309,116.152550 
	C100.154869,117.039841 102.025429,117.927139 103.984398,118.856377 
	C103.984398,137.032074 103.984398,155.472321 103.984398,172.589645 
	C101.503967,174.737000 99.808365,176.204926 98.112755,177.672836 
	C99.726059,178.741058 101.334114,180.731979 102.953453,180.741196 
	C135.085434,180.923950 167.218903,180.916199 199.351166,180.759445 
	C200.911560,180.751831 202.463562,179.027618 204.019485,178.102798 
	C202.610779,176.860764 201.235077,175.577744 199.773331,174.401657 
	C199.333801,174.048019 198.654785,173.992050 198.124542,173.812927 
	C198.124542,155.050385 198.124542,136.585663 198.124542,118.759438 
	C200.255371,117.915726 202.058105,117.201927 203.860840,116.488144 
	C203.183044,114.955650 202.921402,112.913681 201.764023,111.968307 
	C187.976929,100.706627 174.104706,89.547318 160.149612,78.493958 
	C153.701614,73.386703 148.595078,73.389526 142.087463,78.498001 
	C130.309830,87.743393 118.666855,97.160278 106.409248,106.951508 
M330.503571,383.180695 
	C337.653107,383.179871 344.803223,383.237457 351.951996,383.164124 
	C361.880615,383.062286 367.464844,377.495453 368.029144,367.448059 
	C368.103638,366.121613 368.473602,364.452148 369.346619,363.587799 
	C375.567963,357.427917 374.836121,351.301636 367.321930,346.958282 
	C366.123596,346.265656 365.272949,344.898590 364.389221,343.745514 
	C350.688690,325.869904 321.563049,326.134277 308.108459,344.218994 
	C307.193726,345.448547 305.877258,346.546997 304.511597,347.243713 
	C299.202179,349.952362 297.478760,358.788574 302.170990,362.347321 
	C304.788086,364.332275 304.920959,366.356720 305.073547,369.003448 
	C305.546326,377.203583 311.375366,382.863190 319.530945,383.134430 
	C322.852814,383.244904 326.180817,383.170837 330.503571,383.180695 
M267.047821,363.529053 
	C267.441254,367.338898 267.692749,371.170319 268.266724,374.952759 
	C268.880951,379.000549 270.722351,382.604797 275.189545,382.991425 
	C280.647980,383.463837 286.179077,383.239075 291.669769,383.052521 
	C292.556061,383.022430 293.395905,381.624207 294.257233,380.858398 
	C293.256226,380.237640 292.283813,379.144073 291.249084,379.081451 
	C287.596588,378.860443 283.922668,378.998016 280.256897,378.989807 
	C273.794525,378.975311 272.754913,378.024811 272.122040,371.736969 
	C271.171600,362.293854 270.166016,352.856262 269.228577,343.411896 
	C268.399414,335.058441 267.631287,326.698883 266.824646,318.220337 
	C284.246216,318.220337 301.017700,318.220337 318.073029,318.220337 
	C317.882660,320.100647 317.493286,321.765350 317.635315,323.383392 
	C317.717041,324.314636 318.658844,325.170349 319.213501,326.060059 
	C320.072144,325.280060 321.371826,324.647156 321.691833,323.687561 
	C322.248779,322.017548 322.201324,320.145966 322.398407,318.435486 
	C329.808990,317.423462 330.013916,317.189758 330.027771,310.026215 
	C330.029358,309.193085 330.035004,308.359863 330.025726,307.526825 
	C329.959961,301.630157 329.228943,300.865143 323.370758,300.831451 
	C317.128723,300.795532 310.886322,300.823395 304.298218,300.823395 
	C304.298218,298.183960 304.498260,296.347168 304.260193,294.569061 
	C303.581604,289.500610 305.626862,287.829742 310.701782,288.074554 
	C318.681274,288.459503 326.695068,288.266724 334.688873,288.081757 
	C335.931488,288.053009 337.145020,286.767914 338.371979,286.063812 
	C337.087067,285.373077 335.813293,284.109009 334.515472,284.083801 
	C325.521057,283.909454 316.520508,283.910004 307.524139,284.024628 
	C302.180908,284.092712 300.171997,286.305695 300.060364,291.803925 
	C300.001038,294.727386 300.049835,297.653015 300.049835,300.823517 
	C286.674194,300.823517 274.030884,300.742432 261.390839,300.908478 
	C259.432373,300.934204 255.960663,301.831940 255.801544,302.769714 
	C255.094193,306.938751 254.736313,311.387939 255.545395,315.480133 
	C255.851196,317.026855 259.646667,317.883575 262.559143,319.430847 
	C263.970123,333.164246 265.483246,347.891815 267.047821,363.529053 
z"/>
<path fill="#040404" opacity="1.000000" stroke="none" 
	d="
M153.643219,232.000214 
	C153.643219,250.960114 153.643219,269.420013 153.643219,287.830994 
	C177.240051,291.110992 192.162796,284.439209 200.437637,256.287933 
	C200.624496,255.652191 200.538788,254.826004 200.920517,254.379776 
	C201.848999,253.294449 202.978027,252.380676 204.026276,251.397812 
	C204.603592,252.543823 205.660690,253.681320 205.681213,254.837219 
	C205.826050,262.998566 205.757843,271.163696 205.757812,279.327637 
	C205.757751,297.796021 205.757797,316.264404 205.757797,334.750092 
	C202.346054,336.484314 201.031754,335.279205 199.959030,331.990540 
	C197.599365,324.756500 195.224243,317.457672 191.981430,310.598480 
	C187.540710,301.205536 179.227356,296.845581 169.155396,295.981323 
	C164.229355,295.558624 159.237061,295.908112 153.962189,295.908112 
	C153.962189,325.060242 153.962189,353.755219 153.962189,382.771271 
	C165.474533,382.771271 176.753601,382.771271 188.366653,382.771271 
	C188.366653,384.799438 188.366653,386.521576 188.366653,388.608002 
	C152.926025,388.608002 117.402458,388.608002 81.631561,388.608002 
	C81.631561,386.803650 81.631561,385.070770 81.631561,382.860718 
	C87.007469,382.860718 92.268250,382.860718 97.869141,382.860718 
	C97.869141,320.524445 97.869141,258.658875 97.869141,196.326721 
	C92.482483,196.326721 87.224030,196.326721 81.682175,196.326721 
	C81.682175,194.140579 81.682175,192.413971 81.682175,190.360504 
	C130.588409,190.360504 179.476761,190.360504 229.081161,190.360504 
	C230.002457,209.731125 230.930298,229.239212 231.851486,248.607330 
	C228.050903,250.085693 226.487473,248.700867 225.184769,245.450134 
	C222.163559,237.911133 219.055313,230.360947 215.302597,223.170044 
	C205.142273,203.700912 187.679703,196.869202 166.935104,196.172745 
	C162.792465,196.033661 158.641174,196.152664 153.643234,196.152664 
	C153.643234,208.039230 153.643234,219.769714 153.643219,232.000214 
z"/>
<path fill="#2EB8A1" opacity="1.000000" stroke="none" 
	d="
M274.814087,262.797119 
	C260.045380,279.490601 241.562439,282.395966 221.250900,278.289948 
	C213.061172,276.634369 210.623337,272.630707 212.081223,265.150665 
	C213.371643,258.529816 219.165588,254.540863 226.138641,255.932480 
	C249.136093,260.522095 263.841919,245.586166 272.095703,229.581085 
	C280.784821,212.731873 284.690186,194.540756 286.818024,175.967880 
	C289.342499,153.933014 290.006195,131.798233 288.167725,109.644363 
	C288.100159,108.830231 287.960602,108.022072 287.853790,107.204895 
	C265.714294,110.926712 248.316437,122.923859 244.535614,142.228592 
	C242.961487,150.266068 243.924805,158.105499 246.921402,165.740753 
	C249.456863,172.201080 248.478271,175.697708 243.752121,178.009735 
	C236.673584,181.472519 231.083862,180.327637 227.912064,174.057175 
	C222.713257,163.779419 221.080322,152.758301 223.831787,141.540009 
	C228.374557,123.018234 239.622604,109.686432 256.446381,100.778748 
	C270.917725,93.116623 286.529358,89.292381 302.442535,86.366562 
	C308.270020,85.295120 313.234009,89.123276 313.395630,95.684288 
	C313.649628,105.996056 313.476501,116.349396 312.834686,126.644623 
	C311.954895,140.757111 310.463745,154.831390 309.253357,168.923660 
	C309.199249,169.553421 309.330780,170.199158 309.452911,171.929016 
	C314.105621,169.361526 318.359375,167.278519 322.346527,164.771454 
	C350.250885,147.225540 374.449615,125.629379 394.310333,99.201088 
	C397.119629,95.462830 400.844788,91.897972 404.933441,89.755577 
	C411.224213,86.459312 416.851196,90.386604 415.698395,97.294220 
	C414.796509,102.698463 412.797455,108.359253 409.767426,112.890701 
	C398.172699,130.230682 382.954803,144.328857 366.616974,157.000549 
	C355.747894,165.430710 343.763000,172.445770 332.095490,179.805649 
	C329.363617,181.528885 328.144653,182.804047 328.782806,186.320129 
	C332.521240,206.917862 337.749084,226.952805 349.577393,244.621231 
	C354.667236,252.224106 360.709534,259.500397 370.116516,260.960114 
	C377.141235,262.050201 384.588715,260.944366 391.789856,260.230713 
	C400.116882,259.405426 404.164124,262.489441 404.218109,270.262207 
	C404.252533,275.215485 400.734833,276.823395 397.107361,278.073547 
	C371.804443,286.793457 348.165344,281.728912 331.160919,258.496796 
	C318.432281,241.106491 312.362976,221.225769 309.228363,200.236008 
	C308.590820,195.966858 308.055389,191.682480 307.434570,187.410690 
	C307.396637,187.149673 307.020203,186.937836 306.799835,186.709900 
	C303.519653,198.266541 300.598389,209.933151 296.873535,221.337296 
	C291.994110,236.276474 285.535889,250.506104 274.814087,262.797119 
z"/>
<path fill="#FF4810" opacity="1.000000" stroke="none" 
	d="
M106.688454,106.728531 
	C118.666855,97.160278 130.309830,87.743393 142.087463,78.498001 
	C148.595078,73.389526 153.701614,73.386703 160.149612,78.493958 
	C174.104706,89.547318 187.976929,100.706627 201.764023,111.968307 
	C202.921402,112.913681 203.183044,114.955650 203.860840,116.488136 
	C202.058105,117.201927 200.255371,117.915726 198.124542,118.759438 
	C198.124542,136.585663 198.124542,155.050385 198.124542,173.812927 
	C198.654785,173.992050 199.333801,174.048019 199.773331,174.401657 
	C201.235077,175.577744 202.610779,176.860764 204.019485,178.102783 
	C202.463562,179.027618 200.911560,180.751831 199.351166,180.759445 
	C167.218903,180.916199 135.085434,180.923950 102.953453,180.741196 
	C101.334114,180.731979 99.726059,178.741058 98.112755,177.672836 
	C99.808365,176.204926 101.503967,174.737000 103.984398,172.589645 
	C103.984398,155.472321 103.984398,137.032074 103.984398,118.856377 
	C102.025429,117.927139 100.154869,117.039841 98.284309,116.152550 
	C99.557320,114.220970 100.663467,112.146423 102.156776,110.403603 
	C103.325424,109.039688 104.973938,108.086937 106.688454,106.728531 
M169.499832,174.411713 
	C176.770966,174.411713 184.042114,174.411713 191.018646,174.411713 
	C191.434814,173.471542 191.680679,173.174866 191.681351,172.877655 
	C191.724854,153.394791 191.803329,133.911499 191.665756,114.429749 
	C191.655197,112.934029 190.450760,111.030197 189.221527,110.024864 
	C178.401062,101.175232 167.357758,92.596909 156.583984,83.691978 
	C152.641663,80.433495 149.495697,80.522247 145.599472,83.738121 
	C135.203644,92.318619 124.676567,100.748039 113.992767,108.965927 
	C111.411545,110.951393 110.598053,112.946060 110.620140,116.044464 
	C110.747185,133.862183 110.677246,151.681259 110.691910,169.499878 
	C110.693207,171.077805 110.822220,172.655624 110.899796,174.411957 
	C130.541168,174.411957 149.520493,174.411957 169.499832,174.411713 
z"/>
<path fill="#FF4106" opacity="1.000000" stroke="none" 
	d="
M330.004822,383.180725 
	C326.180817,383.170837 322.852814,383.244904 319.530945,383.134430 
	C311.375366,382.863190 305.546326,377.203583 305.073547,369.003448 
	C304.920959,366.356720 304.788086,364.332275 302.170990,362.347321 
	C297.478760,358.788574 299.202179,349.952362 304.511597,347.243713 
	C305.877258,346.546997 307.193726,345.448547 308.108459,344.218994 
	C321.563049,326.134277 350.688690,325.869904 364.389221,343.745514 
	C365.272949,344.898590 366.123596,346.265656 367.321930,346.958282 
	C374.836121,351.301636 375.567963,357.427917 369.346619,363.587799 
	C368.473602,364.452148 368.103638,366.121613 368.029144,367.448059 
	C367.464844,377.495453 361.880615,383.062286 351.951996,383.164124 
	C344.803223,383.237457 337.653107,383.179871 330.004822,383.180725 
M345.437286,364.863861 
	C339.873901,368.753571 334.339050,369.646393 328.373444,365.421539 
	C327.008148,364.454620 324.499359,364.299713 322.793976,364.771973 
	C318.357422,366.000580 314.074799,367.785095 309.513000,369.426147 
	C310.436493,375.808136 313.731873,378.914734 320.823517,378.973663 
	C331.316559,379.060852 341.811737,379.076965 352.304321,378.964722 
	C359.297241,378.889893 362.697632,375.541565 363.413605,369.347778 
	C358.930817,367.771149 354.727936,366.194946 350.453003,364.847290 
	C349.112976,364.424835 347.578949,364.617615 345.437286,364.863861 
M307.001038,359.964661 
	C325.811096,359.973022 344.621246,359.960266 363.431183,360.010956 
	C366.491699,360.019196 369.004578,359.994446 369.091003,355.740234 
	C369.179657,351.378265 366.860596,350.952148 363.405762,350.969116 
	C345.428375,351.057373 327.449921,350.959656 309.473022,351.090088 
	C307.712799,351.102875 304.479980,352.206177 304.470032,352.842987 
	C304.433685,355.169769 305.473083,357.513306 307.001038,359.964661 
M315.974365,346.846008 
	C330.845367,346.846008 345.716370,346.846008 361.678864,346.846008 
	C353.174255,336.180450 342.789642,333.462555 331.020447,335.040527 
	C323.249573,336.082458 316.543579,339.374664 311.597107,346.846405 
	C313.443237,346.846405 314.271973,346.846405 315.974365,346.846008 
z"/>
<path fill="#FF4005" opacity="1.000000" stroke="none" 
	d="
M267.022095,363.074219 
	C265.483246,347.891815 263.970123,333.164246 262.559143,319.430847 
	C259.646667,317.883575 255.851196,317.026855 255.545395,315.480133 
	C254.736313,311.387939 255.094193,306.938751 255.801544,302.769714 
	C255.960663,301.831940 259.432373,300.934204 261.390839,300.908478 
	C274.030884,300.742432 286.674194,300.823517 300.049835,300.823517 
	C300.049835,297.653015 300.001038,294.727386 300.060364,291.803925 
	C300.171997,286.305695 302.180908,284.092712 307.524139,284.024628 
	C316.520508,283.910004 325.521057,283.909454 334.515472,284.083801 
	C335.813293,284.109009 337.087067,285.373077 338.371979,286.063812 
	C337.145020,286.767914 335.931488,288.053009 334.688873,288.081757 
	C326.695068,288.266724 318.681274,288.459503 310.701782,288.074554 
	C305.626862,287.829742 303.581604,289.500610 304.260193,294.569061 
	C304.498260,296.347168 304.298218,298.183960 304.298218,300.823395 
	C310.886322,300.823395 317.128723,300.795532 323.370758,300.831451 
	C329.228943,300.865143 329.959961,301.630157 330.025726,307.526825 
	C330.035004,308.359863 330.029358,309.193085 330.027771,310.026215 
	C330.013916,317.189758 329.808990,317.423462 322.398407,318.435486 
	C322.201324,320.145966 322.248779,322.017548 321.691833,323.687561 
	C321.371826,324.647156 320.072144,325.280060 319.213501,326.060059 
	C318.658844,325.170349 317.717041,324.314636 317.635315,323.383392 
	C317.493286,321.765350 317.882660,320.100647 318.073029,318.220337 
	C301.017700,318.220337 284.246216,318.220337 266.824646,318.220337 
	C267.631287,326.698883 268.399414,335.058441 269.228577,343.411896 
	C270.166016,352.856262 271.171600,362.293854 272.122040,371.736969 
	C272.754913,378.024811 273.794525,378.975311 280.256897,378.989807 
	C283.922668,378.998016 287.596588,378.860443 291.249084,379.081451 
	C292.283813,379.144073 293.256226,380.237640 294.257233,380.858398 
	C293.395905,381.624207 292.556061,383.022430 291.669769,383.052521 
	C286.179077,383.239075 280.647980,383.463837 275.189545,382.991425 
	C270.722351,382.604797 268.880951,379.000549 268.266724,374.952759 
	C267.692749,371.170319 267.441254,367.338898 267.022095,363.074219 
M307.499237,313.842957 
	C313.452026,313.842957 319.404816,313.842957 325.553223,313.842957 
	C325.553223,310.652893 325.553223,307.958252 325.553223,305.365997 
	C303.177155,305.365997 281.140900,305.365997 259.317200,305.365997 
	C259.317200,308.335876 259.317200,310.930389 259.317200,313.842926 
	C275.257629,313.842926 290.878540,313.842926 307.499237,313.842957 
z"/>
<path fill="#FFFCFB" opacity="1.000000" stroke="none" 
	d="
M168.999832,174.411835 
	C149.520493,174.411957 130.541168,174.411957 110.899796,174.411957 
	C110.822220,172.655624 110.693207,171.077805 110.691910,169.499878 
	C110.677246,151.681259 110.747185,133.862183 110.620140,116.044464 
	C110.598053,112.946060 111.411545,110.951393 113.992767,108.965927 
	C124.676567,100.748039 135.203644,92.318619 145.599472,83.738121 
	C149.495697,80.522247 152.641663,80.433495 156.583984,83.691978 
	C167.357758,92.596909 178.401062,101.175232 189.221527,110.024864 
	C190.450760,111.030197 191.655197,112.934029 191.665756,114.429749 
	C191.803329,133.911499 191.724854,153.394791 191.681351,172.877655 
	C191.680679,173.174866 191.434814,173.471542 191.018646,174.411713 
	C184.042114,174.411713 176.770966,174.411713 168.999832,174.411835 
M141.876755,163.027908 
	C141.877029,155.368988 141.823334,147.709335 141.928619,140.051865 
	C141.947021,138.713440 142.272873,136.515686 143.068069,136.185028 
	C151.035065,132.872223 151.497223,126.202286 151.068390,119.102806 
	C150.910416,116.488037 152.259216,112.401878 148.206223,112.284103 
	C143.594193,112.150063 145.294693,116.492439 144.943832,119.193878 
	C144.529236,122.386108 144.160248,125.584267 143.771484,128.779861 
	C143.139023,128.715683 142.506546,128.651505 141.874069,128.587341 
	C141.874069,124.693161 142.195496,120.759827 141.727951,116.922623 
	C141.518509,115.203705 139.727829,113.677460 138.654709,112.063782 
	C137.611313,113.676376 135.869781,115.206131 135.666595,116.918427 
	C135.212280,120.747070 135.524521,124.666664 135.524521,128.549225 
	C134.983063,128.630661 134.441620,128.712112 133.900162,128.793549 
	C133.386124,126.882835 132.655060,124.998749 132.416351,123.054230 
	C132.154510,120.921211 132.714355,118.644547 132.224487,116.595856 
	C131.833374,114.960159 130.404694,113.572556 129.436569,112.074829 
	C128.324310,113.636665 126.756775,115.059242 126.224724,116.798553 
	C125.665802,118.625748 126.107582,120.756340 126.096230,122.754257 
	C126.063568,128.502411 127.953728,133.048187 133.390045,135.903778 
	C134.536453,136.505966 135.380829,138.720612 135.420746,140.217453 
	C135.624863,147.871017 135.375809,155.537750 135.638046,163.187790 
	C135.694092,164.822815 137.213333,166.407700 138.058487,168.015686 
	C139.329269,166.651611 140.600067,165.287552 141.876755,163.027908 
M163.757080,162.202377 
	C163.757080,159.899170 163.757080,157.595947 163.757080,155.178329 
	C165.998428,154.526779 167.918060,154.054031 169.778549,153.410385 
	C173.811356,152.015213 176.119370,149.271317 176.051559,144.859497 
	C175.873260,133.255325 171.975235,123.072250 164.084381,114.547874 
	C162.994659,113.370651 161.082474,112.954788 159.551041,112.186447 
	C158.787979,113.874641 157.381821,115.555481 157.362411,117.252174 
	C157.189453,132.383469 157.158768,147.519180 157.394424,162.648773 
	C157.422958,164.480652 159.278015,166.284088 160.286530,168.100708 
	C161.442856,166.425690 162.599182,164.750671 163.757080,162.202377 
z"/>
<path fill="#FFFBFA" opacity="1.000000" stroke="none" 
	d="
M345.785522,364.696320 
	C347.578949,364.617615 349.112976,364.424835 350.453003,364.847290 
	C354.727936,366.194946 358.930817,367.771149 363.413605,369.347778 
	C362.697632,375.541565 359.297241,378.889893 352.304321,378.964722 
	C341.811737,379.076965 331.316559,379.060852 320.823517,378.973663 
	C313.731873,378.914734 310.436493,375.808136 309.513000,369.426147 
	C314.074799,367.785095 318.357422,366.000580 322.793976,364.771973 
	C324.499359,364.299713 327.008148,364.454620 328.373444,365.421539 
	C334.339050,369.646393 339.873901,368.753571 345.785522,364.696320 
z"/>
<path fill="#FFFEFE" opacity="1.000000" stroke="none" 
	d="
M306.554138,359.907593 
	C305.473083,357.513306 304.433685,355.169769 304.470032,352.842987 
	C304.479980,352.206177 307.712799,351.102875 309.473022,351.090088 
	C327.449921,350.959656 345.428375,351.057373 363.405762,350.969116 
	C366.860596,350.952148 369.179657,351.378265 369.091003,355.740234 
	C369.004578,359.994446 366.491699,360.019196 363.431183,360.010956 
	C344.621246,359.960266 325.811096,359.973022 306.554138,359.907593 
z"/>
<path fill="#FFF7F5" opacity="1.000000" stroke="none" 
	d="
M315.537537,346.846191 
	C314.271973,346.846405 313.443237,346.846405 311.597107,346.846405 
	C316.543579,339.374664 323.249573,336.082458 331.020447,335.040527 
	C342.789642,333.462555 353.174255,336.180450 361.678864,346.846008 
	C345.716370,346.846008 330.845367,346.846008 315.537537,346.846191 
z"/>
<path fill="#FFF9F7" opacity="1.000000" stroke="none" 
	d="
M306.999329,313.842957 
	C290.878540,313.842926 275.257629,313.842926 259.317200,313.842926 
	C259.317200,310.930389 259.317200,308.335876 259.317200,305.365997 
	C281.140900,305.365997 303.177155,305.365997 325.553223,305.365997 
	C325.553223,307.958252 325.553223,310.652893 325.553223,313.842957 
	C319.404816,313.842957 313.452026,313.842957 306.999329,313.842957 
z"/>
<path fill="#FF4309" opacity="1.000000" stroke="none" 
	d="
M141.873810,163.475693 
	C140.600067,165.287552 139.329269,166.651611 138.058487,168.015686 
	C137.213333,166.407700 135.694092,164.822815 135.638046,163.187790 
	C135.375809,155.537750 135.624863,147.871017 135.420746,140.217453 
	C135.380829,138.720612 134.536453,136.505966 133.390045,135.903778 
	C127.953728,133.048187 126.063568,128.502411 126.096230,122.754257 
	C126.107582,120.756340 125.665802,118.625748 126.224724,116.798553 
	C126.756775,115.059242 128.324310,113.636665 129.436569,112.074829 
	C130.404694,113.572556 131.833374,114.960159 132.224487,116.595856 
	C132.714355,118.644547 132.154510,120.921211 132.416351,123.054230 
	C132.655060,124.998749 133.386124,126.882835 133.900162,128.793549 
	C134.441620,128.712112 134.983063,128.630661 135.524521,128.549225 
	C135.524521,124.666664 135.212280,120.747070 135.666595,116.918427 
	C135.869781,115.206131 137.611313,113.676376 138.654709,112.063782 
	C139.727829,113.677460 141.518509,115.203705 141.727951,116.922623 
	C142.195496,120.759827 141.874069,124.693161 141.874069,128.587341 
	C142.506546,128.651505 143.139023,128.715683 143.771484,128.779861 
	C144.160248,125.584267 144.529236,122.386108 144.943832,119.193878 
	C145.294693,116.492439 143.594193,112.150063 148.206223,112.284103 
	C152.259216,112.401878 150.910416,116.488037 151.068390,119.102806 
	C151.497223,126.202286 151.035065,132.872223 143.068069,136.185028 
	C142.272873,136.515686 141.947021,138.713440 141.928619,140.051865 
	C141.823334,147.709335 141.877029,155.368988 141.873810,163.475693 
z"/>
<path fill="#FF4912" opacity="1.000000" stroke="none" 
	d="
M163.756302,162.639008 
	C162.599182,164.750671 161.442856,166.425690 160.286530,168.100708 
	C159.278015,166.284088 157.422958,164.480652 157.394424,162.648773 
	C157.158768,147.519180 157.189453,132.383469 157.362411,117.252174 
	C157.381821,115.555481 158.787979,113.874641 159.551041,112.186447 
	C161.082474,112.954788 162.994659,113.370651 164.084381,114.547874 
	C171.975235,123.072250 175.873260,133.255325 176.051559,144.859497 
	C176.119370,149.271317 173.811356,152.015213 169.778549,153.410385 
	C167.918060,154.054031 165.998428,154.526779 163.757080,155.178329 
	C163.757080,157.595947 163.757080,159.899170 163.756302,162.639008 
M169.839493,145.126831 
	C169.519638,138.422028 168.343033,131.983322 164.085083,125.507446 
	C164.085083,133.663147 164.085083,140.811050 164.085083,148.956146 
	C166.400269,147.705048 168.024933,146.827103 169.839493,145.126831 
z"/>
<path fill="#FFF5F3" opacity="1.000000" stroke="none" 
	d="
M169.744553,145.537994 
	C168.024933,146.827103 166.400269,147.705048 164.085083,148.956146 
	C164.085083,140.811050 164.085083,133.663147 164.085083,125.507446 
	C168.343033,131.983322 169.519638,138.422028 169.744553,145.537994 
z"/>
</svg>